# xmcd
#
# Track frame offsets:
#	150
#	10599
#	23049
#	36185
#	49000
#	60144
#	72069
#	83237
#	95138
#	107420
#	117276
#	126544
#	136614
#	147099
#	159825
#	173826
#
# Disc length: 2444 seconds
#
# Revision: 1
# Processed by: cddbd v1.4PL0 Copyright (c) Steve Scherf et al.
# Submitted via: audiograbber 1.80
#
DISCID=c2098a10
DTITLE=George Jones - The Essential
DYEAR=1900
DGENRE=
TTITLE0=Why baby why
TTITLE1=Just one more
TTITLE2=Color of the Blues
TTITLE3=White lightning
TTITLE4=Who shot sam
TTITLE5=The window up above
TTITLE6=Tender years
TTITLE7=She thinks i still care
TTITLE8=We must have been out of our minds
TTITLE9=The race is on
TTITLE10=Love bug
TTITLE11=I'm a people
TTITLE12=Walk through this world with me
TTITLE13=If my heart had windows
TTITLE14=A good year for the roses
TTITLE15=We can make it
EXTD=
EXTT0=
EXTT1=
EXTT2=
EXTT3=
EXTT4=
EXTT5=
EXTT6=
EXTT7=
EXTT8=
EXTT9=
EXTT10=
EXTT11=
EXTT12=
EXTT13=
EXTT14=
EXTT15=
PLAYORDER=
